<?xml version="1.0" encoding="UTF-8"?>
<svg xmlns="http://www.w3.org/2000/svg" viewBox="0 0 128 128">
  <defs>
    <linearGradient id="bg" x1="0" y1="0" x2="1" y2="1">
      <stop offset="0%" stop-color="#3d3846"/>
      <stop offset="100%" stop-color="#241f31"/>
    </linearGradient>
    <linearGradient id="s1" x1="0" y1="0" x2="0" y2="1">
      <stop offset="0%" stop-color="#c0bfbc"/>
      <stop offset="100%" stop-color="#9a9996"/>
    </linearGradient>
    <linearGradient id="s2" x1="0" y1="0" x2="0" y2="1">
      <stop offset="0%" stop-color="#deddda"/>
      <stop offset="100%" stop-color="#c0bfbc"/>
    </linearGradient>
  </defs>

  <!-- Background -->
  <rect x="4" y="4" width="120" height="120" rx="28" fill="url(#bg)"/>

  <!-- Large monitor (back right) -->
  <rect x="40" y="24" width="60" height="40" rx="3" fill="#5e5c64"/>
  <rect x="43" y="27" width="54" height="32" rx="1.5" fill="url(#s1)"/>
  <rect x="63" y="64" width="14" height="3" rx="1" fill="#5e5c64"/>
  <rect x="59" y="67" width="22" height="2.5" rx="1.2" fill="#5e5c64"/>

  <!-- Small monitor (front left) -->
  <rect x="18" y="38" width="46" height="32" rx="3" fill="#77767b"/>
  <rect x="21" y="41" width="40" height="24" rx="1.5" fill="url(#s2)"/>
  <rect x="35" y="70" width="10" height="3" rx="1" fill="#77767b"/>
  <rect x="31" y="73" width="18" height="2.5" rx="1.2" fill="#77767b"/>

  <!-- Subtle check/link indicator -->
  <circle cx="64" cy="96" r="10" fill="none" stroke="#8ff0a4" stroke-width="2" opacity="0.8"/>
  <path d="M58 96 L62 100 L70 91" fill="none" stroke="#8ff0a4" stroke-width="2.5" stroke-linecap="round" stroke-linejoin="round" opacity="0.8"/>
</svg>
